<?xml version="1.0" standalone="no"?>
<!DOCTYPE svg PUBLIC "-//W3C//DTD SVG 20010904//EN"
 "http://www.w3.org/TR/2001/REC-SVG-20010904/DTD/svg10.dtd">
<svg version="1.0" xmlns="http://www.w3.org/2000/svg"
 width="600.000000pt" height="600.000000pt" viewBox="0 0 600.000000 600.000000"
 preserveAspectRatio="xMidYMid meet">

<g transform="translate(0.000000,600.000000) scale(0.100000,-0.100000)"
fill="#4E0100" stroke="none">
<path d="M2848 4962 c-36 -14 -88 -75 -146 -169 -46 -76 -82 -118 -155 -186
-99 -90 -167 -185 -202 -279 -14 -39 -25 -50 -67 -72 l-49 -26 -38 30 c-96 78
-240 96 -487 61 -83 -12 -198 -34 -255 -50 -154 -43 -198 -50 -353 -61 -171
-12 -260 -30 -327 -67 -96 -52 -101 -112 -21 -251 78 -135 95 -173 177 -392
92 -245 154 -393 201 -478 103 -184 303 -335 420 -317 40 6 42 5 46 -24 4 -29
3 -30 -46 -36 -76 -10 -119 -43 -155 -117 -52 -110 -61 -166 -73 -417 -11
-258 -3 -343 46 -493 35 -109 63 -246 77 -378 13 -124 23 -151 72 -180 57 -35
68 -33 337 80 183 76 253 98 365 116 203 32 373 105 480 206 66 62 105 126
150 248 30 83 53 110 94 110 41 0 55 -18 85 -105 85 -248 265 -364 626 -405
52 -6 125 -22 163 -35 73 -27 266 -79 331 -90 22 -4 70 -22 108 -41 109 -55
182 -43 224 37 8 17 20 72 25 122 6 51 28 169 49 262 65 282 73 396 39 535
-11 47 -29 130 -40 185 -23 119 -82 248 -133 293 -34 30 -105 52 -167 52 -27
0 -30 3 -23 23 3 12 8 24 10 26 2 3 39 -1 82 -7 123 -19 166 -5 318 108 105
79 149 126 195 213 18 34 59 107 92 162 58 96 141 263 194 390 14 33 45 92 68
130 139 224 149 345 32 404 -40 20 -69 24 -199 31 -116 7 -175 15 -243 35 -57
16 -134 29 -210 35 -82 5 -147 17 -205 35 -54 17 -118 29 -176 32 -89 5 -93 5
-174 -32 -49 -22 -126 -46 -185 -58 l-102 -20 -79 42 c-75 38 -81 44 -91 84
-23 85 -202 305 -302 371 -87 57 -112 82 -167 167 -62 97 -110 147 -152 159
-42 11 -59 12 -84 2z m38 -66 c-43 -26 -67 -57 -116 -146 -63 -114 -137 -213
-152 -204 -7 4 -8 2 -4 -5 5 -8 -23 -50 -74 -112 -93 -114 -110 -148 -110
-222 0 -99 42 -196 156 -362 47 -68 50 -87 24 -130 -25 -40 -54 -55 -105 -55
-79 0 -208 67 -238 124 -10 17 -35 84 -57 150 -48 143 -78 197 -127 228 -34
20 -50 23 -143 23 -107 -1 -142 -8 -410 -81 -116 -31 -285 -41 -418 -25 -109
13 -167 2 -185 -36 -12 -27 16 -119 68 -223 18 -36 37 -88 41 -115 4 -28 9
-52 9 -55 1 -3 5 -25 9 -50 13 -74 73 -273 117 -382 70 -178 181 -318 296
-376 63 -32 171 -57 203 -47 10 3 53 6 96 7 73 1 79 -1 101 -26 33 -39 31 -94
-4 -128 -53 -49 -111 -70 -208 -76 -49 -2 -98 -9 -107 -13 -31 -17 -69 -77
-94 -150 -39 -116 -30 -244 36 -489 18 -71 24 -122 50 -480 20 -272 64 -297
313 -176 146 70 261 107 462 147 115 22 181 50 296 124 98 63 145 135 259 403
54 126 100 202 123 202 17 0 50 -36 71 -78 9 -18 30 -84 47 -148 55 -215 103
-288 252 -385 117 -77 185 -97 351 -105 153 -7 255 -36 441 -124 146 -69 161
-73 200 -54 38 18 48 48 65 184 6 47 25 153 43 235 30 142 32 161 31 360 0
226 -9 286 -58 383 -22 44 -94 124 -129 144 -8 4 -56 19 -107 32 -113 31 -122
37 -108 77 14 42 48 55 168 68 161 17 236 63 372 228 36 43 72 85 80 94 50 50
170 265 261 469 36 80 90 197 121 260 61 123 64 149 24 183 -15 13 -38 17 -93
17 -39 0 -195 18 -346 39 -357 52 -454 62 -596 62 -127 1 -170 -4 -248 -28
-110 -35 -158 -67 -236 -164 -62 -77 -198 -134 -273 -115 -21 5 -26 12 -26 37
0 45 21 87 104 209 65 95 76 118 76 153 0 54 -10 67 -162 228 -141 149 -222
247 -256 311 -12 24 -15 32 -5 18 43 -60 80 -93 145 -132 54 -32 94 -69 177
-164 60 -68 116 -138 125 -157 9 -20 16 -60 16 -93 0 -55 -5 -66 -71 -175 -56
-93 -70 -124 -67 -149 4 -38 31 -61 50 -42 9 9 8 15 -6 25 -13 10 -16 20 -10
41 12 51 114 136 114 96 0 -18 -30 -70 -40 -70 -6 0 -10 -4 -10 -10 0 -20 50
-9 93 20 45 30 107 88 107 101 0 12 78 61 120 75 23 8 97 19 165 24 78 6 146
17 185 31 42 14 73 19 98 15 51 -9 95 -27 105 -43 9 -14 132 -19 141 -5 9 15
192 -6 281 -32 69 -21 124 -30 235 -36 160 -9 191 -17 216 -55 31 -47 2 -133
-103 -310 -22 -38 -65 -126 -94 -195 -29 -69 -71 -161 -94 -205 -206 -395
-197 -382 -338 -493 -135 -107 -142 -109 -355 -103 -57 2 -105 2 -106 0 -16
-18 -13 -48 4 -67 18 -19 32 -22 91 -22 42 0 81 -6 98 -14 37 -20 85 -75 107
-125 9 -22 21 -38 25 -35 12 7 26 -26 38 -91 6 -33 23 -121 37 -195 36 -186
28 -289 -45 -573 -17 -65 -37 -167 -45 -226 -14 -105 -27 -148 -50 -163 -23
-16 -68 -7 -120 23 -33 18 -91 38 -148 49 -101 21 -227 56 -325 89 -34 11 -82
21 -105 21 -111 0 -285 37 -388 83 -42 18 -43 20 -21 26 37 10 37 29 -1 36
-95 18 -175 125 -238 321 -34 108 -74 204 -84 204 -2 0 -3 -28 -3 -63 0 -66
-16 -112 -35 -101 -6 4 -8 24 -4 50 3 24 2 44 -3 44 -10 0 -25 -38 -62 -150
-33 -103 -105 -241 -150 -288 -102 -106 -281 -184 -491 -212 -128 -17 -186
-35 -416 -127 -272 -108 -284 -107 -296 37 -10 122 -42 278 -86 416 -39 122
-60 242 -60 341 0 51 12 69 24 37 3 -8 10 -12 16 -9 6 4 7 13 1 23 -16 31 -23
207 -12 288 18 126 41 193 81 234 31 32 44 38 110 49 93 14 164 37 213 68 31
20 37 29 37 58 0 52 -28 62 -124 43 -86 -18 -126 -13 -209 25 -79 36 -181 113
-171 129 3 5 0 7 -7 6 -14 -4 -134 132 -188 212 -40 60 -59 109 -162 405 -60
172 -85 228 -173 388 -56 103 -56 126 2 156 64 33 152 50 308 62 106 8 182 19
264 41 257 68 327 83 484 98 148 15 190 7 249 -49 63 -58 124 -148 148 -217
11 -29 19 -59 19 -65 0 -6 13 -30 28 -53 46 -68 49 -73 29 -57 -29 23 -19 -6
14 -44 63 -71 127 -84 173 -36 24 25 27 34 21 63 -13 59 -71 145 -147 219 -36
34 -38 39 -38 97 0 131 93 304 219 406 98 79 123 107 192 218 62 101 94 135
125 135 17 0 17 -1 0 -11z m-58 -203 c0 -5 2 -16 6 -26 11 -24 -2 -77 -14 -57
-7 13 -14 63 -11 83 1 4 6 7 11 7 6 0 9 -3 8 -7z m151 -56 c-2 -46 -9 -68 -20
-62 -10 7 -13 88 -3 98 13 13 24 -5 23 -36z m109 -99 c-6 -54 -15 -70 -28 -48
-13 20 -13 80 0 80 6 0 9 3 9 8 -3 17 2 23 12 16 7 -4 9 -25 7 -56z m-340 11
c2 -19 -4 -43 -12 -54 -13 -18 -15 -17 -21 27 -4 26 -4 52 0 58 12 20 30 4 33
-31z m112 -147 c13 -47 13 -69 0 -77 -16 -10 -41 15 -63 64 -19 42 -19 45 -2
57 26 19 52 1 65 -44z m-124 1 c10 -52 -11 -65 -32 -20 -9 19 -14 42 -11 51
10 26 36 7 43 -31z m282 6 c2 -36 -33 -109 -57 -117 -11 -4 -12 6 -7 54 12 95
58 141 64 63z m-390 19 c13 -13 17 -68 5 -68 -14 0 -43 34 -43 50 0 30 18 38
38 18z m472 -23 c0 -32 -20 -75 -35 -75 -13 0 -6 64 9 88 12 20 26 13 26 -13z
m143 -11 c-3 -8 -14 -19 -24 -25 -15 -8 -19 -6 -19 6 0 10 5 13 12 9 7 -4 8
-3 4 5 -4 7 -5 19 -2 28 5 12 9 13 21 3 7 -6 11 -18 8 -26z m91 -91 c-2 -31
-40 -93 -57 -93 -5 0 -7 20 -4 45 8 73 64 117 61 48z m-564 -2 c12 -24 13
-131 1 -150 -8 -12 -12 -12 -25 -2 -18 15 -48 101 -35 101 5 0 4 9 -3 19 -9
15 -9 23 1 35 18 22 48 20 61 -3z m-214 -26 c30 -73 6 -114 -26 -43 -11 24
-20 51 -20 61 0 30 30 18 46 -18z m578 -1 c22 -22 20 -50 -9 -113 -32 -68 -48
-58 -48 29 1 44 6 67 19 81 21 23 19 23 38 3z m-609 -114 c27 -30 11 -35 -21
-6 -21 18 -24 25 -13 26 9 0 24 -9 34 -20z m893 -12 c-5 -16 -57 -42 -65 -34
-4 3 2 15 12 26 20 22 59 28 53 8z m-537 -30 c15 -27 -6 -161 -24 -155 -15 5
-35 71 -36 118 -1 56 37 80 60 37z m121 5 c12 -11 18 -30 18 -58 0 -46 -17
-105 -31 -105 -26 0 -47 108 -30 153 12 31 18 33 43 10z m-1127 -31 c33 -21
105 -92 105 -104 0 -16 -36 -7 -99 22 -45 22 -61 34 -57 45 3 8 1 15 -5 15 -6
0 -6 7 1 20 13 25 17 25 55 2z m-143 -20 c-1 -8 1 -11 6 -8 5 3 18 -5 30 -17
26 -28 83 -119 78 -124 -7 -7 -101 44 -134 72 -37 31 -48 60 -31 81 15 18 55
14 51 -4z m1368 -31 c7 -14 7 -35 -1 -70 -19 -92 -57 -85 -43 8 6 44 20 81 29
81 2 0 9 -9 15 -19z m-499 -35 c25 -41 26 -70 2 -57 -34 18 -73 62 -73 80 0
30 49 14 71 -23z m173 22 c18 -25 22 -118 6 -118 -15 0 -50 76 -50 110 0 36
22 40 44 8z m586 9 c0 -2 -9 -15 -21 -28 -11 -13 -24 -28 -27 -34 -10 -14 -53
-37 -59 -31 -8 7 6 42 28 70 14 17 30 26 50 26 16 0 29 -2 29 -3z m649 -15
c11 -21 -5 -61 -29 -72 -31 -16 -100 -27 -100 -17 0 5 16 31 36 58 38 53 75
65 93 31z m189 9 c7 -1 10 -5 7 -11 -9 -15 -86 -58 -118 -66 -25 -6 -28 -4
-25 12 2 11 10 18 17 16 7 -1 10 2 7 7 -9 15 44 48 73 45 14 -1 32 -2 39 -3z
m-3035 -40 l26 -40 -29 11 c-17 5 -30 14 -30 20 0 5 6 6 13 2 7 -4 9 -3 4 2
-5 5 -14 9 -20 9 -7 0 -13 8 -15 18 -6 31 25 18 51 -22z m253 4 c9 -20 15 -38
13 -40 -8 -7 -69 46 -69 61 0 29 39 14 56 -21z m215 20 c16 -9 33 -34 74 -108
9 -16 15 -37 13 -48 -3 -16 -12 -12 -68 31 -66 52 -98 96 -87 124 6 16 42 17
68 1z m449 5 c22 -12 56 -68 65 -109 7 -31 6 -31 -22 -20 -80 30 -111 66 -99
115 7 25 25 30 56 14z m2270 -43 c0 -34 -64 -87 -105 -87 -13 0 -12 6 6 43 30
60 38 67 70 67 24 0 29 -4 29 -23z m240 2 c0 -16 -105 -109 -123 -109 -16 0
-16 2 -2 37 24 57 50 80 90 80 19 0 35 -4 35 -8z m90 -3 c0 -2 -8 -10 -17 -17
-16 -13 -17 -12 -4 4 13 16 21 21 21 13z m-3409 -17 c12 -6 18 -17 15 -25 -3
-7 0 -13 6 -11 10 2 57 -67 58 -85 0 -8 -16 -5 -51 10 -27 11 -82 69 -76 80 2
4 7 15 10 25 7 20 11 21 38 6z m3369 -17 c0 -5 -12 -14 -27 -21 l-28 -11 24
20 c26 22 31 24 31 12z m-3103 -65 c19 -37 33 -204 15 -193 -17 10 -92 153
-92 175 0 11 4 31 10 46 8 22 13 24 30 15 11 -6 27 -25 37 -43z m3407 45 c7
-11 -25 -73 -34 -67 -5 3 -10 1 -12 -4 -4 -12 -78 -44 -78 -35 0 3 10 24 23
47 25 45 87 81 101 59z m-979 -25 c11 -7 21 -18 23 -25 7 -35 -76 -140 -100
-126 -7 4 -10 4 -6 -1 7 -7 -34 -35 -52 -35 -37 0 13 138 66 179 30 24 41 25
69 8z m-2905 -19 c21 -12 30 -23 22 -26 -24 -8 -60 8 -65 28 -7 25 0 25 43 -2z
m1600 -10 c21 -35 26 -68 10 -68 -12 0 -60 70 -60 87 0 25 30 13 50 -19z
m2000 17 c0 -33 -30 -85 -89 -153 -34 -40 -66 -72 -71 -72 -28 0 5 132 47 188
19 25 31 32 59 32 18 0 34 5 34 10 0 6 5 10 10 10 6 0 10 -7 10 -15z m-3507
-33 c-1 -5 5 -9 13 -8 9 0 27 -14 41 -31 l26 -33 -27 0 c-16 0 -25 4 -21 10 3
6 1 10 -5 10 -6 0 -8 5 -4 12 4 7 3 8 -5 4 -6 -4 -9 -12 -6 -17 4 -5 -5 -4
-19 2 -21 10 -23 14 -13 30 9 14 7 22 -8 41 l-20 22 25 -16 c14 -9 24 -21 23
-26z m977 5 c49 -24 80 -69 101 -148 15 -56 7 -84 -19 -70 -26 14 -122 112
-143 146 -22 35 -24 66 -7 83 15 15 14 15 68 -11z m2229 -61 c26 -31 -18 -136
-78 -184 -44 -35 -81 -55 -88 -48 -6 6 24 99 48 147 17 35 81 99 98 99 5 0 14
-6 20 -14z m-2510 -13 c24 -20 85 -166 71 -171 -16 -6 -67 27 -99 63 -32 37
-39 72 -21 106 13 24 22 24 49 2z m2218 -5 c11 -19 12 -38 2 -38 -6 0 -8 -4
-5 -9 18 -29 -58 -129 -126 -167 l-28 -15 0 35 c0 51 41 136 84 174 39 34 60
40 73 20z m-2689 -12 c42 -22 123 -118 110 -131 -3 -3 -30 7 -60 21 -58 28
-105 82 -94 109 7 18 10 19 44 1z m622 -16 c12 -16 18 -35 14 -41 -4 -8 -3 -9
4 -5 7 4 12 1 12 -9 0 -8 4 -23 9 -33 16 -30 43 -113 39 -118 -10 -9 -74 43
-115 94 -42 51 -52 86 -37 126 10 27 51 19 74 -14z m917 4 c3 -10 -4 -26 -21
-42 l-26 -27 0 23 c0 48 33 81 47 46z m157 -26 c5 -15 6 -31 2 -35 -9 -10 -46
33 -46 54 0 25 34 10 44 -19z m1956 25 c-1 -18 -19 -35 -29 -29 -7 4 -10 2 -9
-5 2 -7 -13 -19 -32 -25 -43 -16 -104 -18 -95 -4 4 6 11 8 16 4 5 -3 8 0 7 7
-5 21 62 59 103 59 22 0 39 -3 39 -7z m-318 -34 c-4 -41 -24 -68 -66 -89 -35
-17 -41 -18 -44 -5 -5 23 40 98 68 112 33 17 46 11 42 -18z m-929 15 c12 -12
-27 -55 -66 -74 -22 -11 -43 -18 -45 -15 -6 6 83 95 95 95 5 0 12 -3 16 -6z
m-1065 -70 l-3 -29 -19 27 c-10 16 -15 35 -12 45 11 27 38 -8 34 -43z m90 44
c7 -7 12 -23 12 -36 0 -38 -34 -24 -38 16 -3 33 6 40 26 20z m143 -46 c-13
-25 -37 -20 -44 9 -7 25 23 43 41 25 11 -11 11 -19 3 -34z m77 31 c10 -20 5
-43 -8 -43 -13 0 -32 39 -25 50 9 15 23 12 33 -7z m202 -1 c0 -25 -25 -56 -38
-48 -6 4 -9 13 -7 21 3 8 7 22 10 30 6 21 35 19 35 -3z m-67 1 c10 -17 -13
-53 -33 -53 -14 0 -20 7 -20 23 0 13 3 27 7 30 9 9 41 9 46 0z m1029 1 c10 -9
-33 -124 -45 -125 -7 -1 -18 -1 -26 0 -7 2 -10 -2 -7 -7 6 -10 -42 -27 -51
-18 -13 12 12 69 48 110 37 42 66 56 81 40z m-2822 -35 c28 -12 50 -25 50 -30
0 -5 -31 -9 -68 -9 -59 0 -72 3 -90 23 -17 18 -19 26 -9 36 15 15 50 9 117
-20z m-216 -28 l29 -31 -29 9 c-56 17 -64 23 -64 47 0 20 3 23 18 15 9 -5 30
-23 46 -40z m1520 17 c18 -26 21 -48 6 -48 -17 0 -62 49 -55 60 10 17 33 11
49 -12z m706 -16 c0 -10 -5 -23 -12 -30 -13 -13 -48 -17 -48 -5 0 10 42 53 52
53 4 0 8 -8 8 -18z m1180 9 c0 -23 -21 -62 -30 -56 -5 3 -8 0 -5 -7 3 -7 -18
-36 -47 -63 l-53 -50 -3 27 c-4 36 47 133 70 133 10 0 23 6 30 13 14 14 38 16
38 3z m172 -28 c18 -16 18 -17 -4 -40 -18 -19 -31 -23 -85 -23 -84 0 -84 23 2
50 22 7 44 16 50 21 12 12 16 12 37 -8z m-2558 -25 c25 -33 44 -88 31 -88 -14
0 -103 70 -109 86 -17 46 43 47 78 2z m386 17 c0 -9 -6 -12 -16 -8 -12 4 -14
0 -8 -21 5 -20 2 -26 -9 -26 -24 0 -49 41 -35 57 15 18 68 17 68 -2z m1325
-15 c16 -26 -56 -90 -102 -90 -32 0 -29 12 17 59 38 39 72 52 85 31z m-379
-14 c9 -23 -15 -57 -51 -72 -19 -8 -37 -14 -41 -14 -10 0 3 70 17 86 15 18 68
18 75 0z m-2244 -34 c26 -14 45 -29 42 -33 -8 -14 -86 -11 -139 6 -47 14 -65
28 -65 52 0 20 110 3 162 -25z m3672 22 c3 -9 -2 -29 -11 -45 -20 -34 -49 -37
-106 -10 -42 20 -39 27 23 54 47 21 86 21 94 1z m-2509 -19 c23 -22 34 -55 19
-55 -17 0 -73 34 -78 47 -15 38 24 44 59 8z m-870 3 c14 -6 25 -15 25 -19 0
-11 -60 -55 -71 -51 -5 1 -9 -3 -9 -9 0 -6 -7 -8 -16 -5 -8 3 -13 2 -10 -3 15
-23 -94 -29 -117 -6 -8 8 -17 11 -21 8 -3 -4 -6 6 -6 20 0 33 33 56 97 67 71
12 99 11 128 -2z m150 -19 c30 -11 55 -24 55 -29 0 -24 -114 -39 -150 -20 -17
9 -17 12 -4 40 18 36 26 36 99 9z m245 6 c28 -14 100 -98 100 -116 0 -13 -14
-11 -75 12 -62 23 -95 52 -95 84 0 39 22 45 70 20z m1630 -37 c-1 -22 -37 -58
-59 -58 -25 0 -28 31 -5 54 18 19 64 21 64 4z m-1176 -19 c20 -12 36 -27 36
-35 0 -18 -1 -17 -50 2 -27 11 -40 22 -40 35 0 24 11 24 54 -2z m1243 4 c4
-11 -65 -59 -73 -50 -3 2 7 19 22 36 26 31 44 36 51 14z m1232 -65 c-8 -18
-18 -25 -37 -24 -37 1 -34 18 7 38 41 21 45 19 30 -14z m-815 16 c21 -8 20
-22 -2 -42 -10 -10 -11 -12 -3 -7 11 7 13 7 7 -3 -12 -20 -58 -39 -113 -47
-35 -4 -53 -3 -53 4 0 13 57 56 107 82 43 22 37 21 57 13z m289 -13 c16 -16
-20 -51 -54 -51 -50 0 -130 21 -126 33 10 31 153 45 180 18z m-2800 -54 c37
-16 67 -34 67 -38 0 -12 -127 -11 -170 1 -20 5 -45 16 -55 24 -16 11 -17 16
-6 29 26 32 66 28 164 -16z m771 31 c29 -13 43 -45 27 -61 -7 -7 -21 -6 -48 4
-39 15 -55 45 -31 60 17 11 22 11 52 -3z m1332 -3 c9 -22 -13 -43 -54 -55 -49
-13 -59 1 -27 39 29 33 71 42 81 16z m1024 5 c0 -21 -31 -70 -50 -80 -28 -15
-167 -11 -181 6 -13 16 1 24 102 58 78 27 129 33 129 16z m-942 -46 c3 -22
-31 -44 -68 -44 -27 0 -25 16 5 46 29 29 59 28 63 -2z m-2460 -33 c42 -22 82
-57 82 -72 0 -5 -10 -7 -22 -5 -13 3 -40 8 -61 11 -24 4 -35 10 -31 17 4 7 3
8 -5 4 -15 -10 -48 2 -55 19 -17 45 29 58 92 26z m689 -8 c6 -18 -91 -63 -135
-63 -63 0 -83 48 -30 70 33 13 160 8 165 -7z m2827 8 c3 -5 -2 -19 -12 -31
-15 -18 -26 -21 -77 -18 l-60 3 50 27 c51 28 89 35 99 19z m-3103 -33 c62 -34
49 -47 -43 -43 -55 2 -88 16 -88 37 0 6 8 4 18 -3 9 -7 14 -9 9 -4 -6 7 14 18
62 34 2 0 21 -9 42 -21z m597 6 c33 -23 27 -34 -21 -34 -46 0 -69 14 -60 36 7
19 53 18 81 -2z m1522 -21 c0 -9 -7 -24 -16 -34 -14 -16 -14 -20 1 -43 24 -36
6 -56 -51 -56 -52 0 -55 12 -17 52 l27 28 -25 0 c-23 1 -23 2 13 35 41 38 68
45 68 18z m698 2 c26 -4 42 -12 42 -21 0 -20 -43 -45 -88 -51 -42 -6 -148 13
-157 27 -11 18 94 61 135 55 14 -2 44 -7 68 -10z m-411 -37 c32 -33 -20 -77
-75 -63 -28 7 -92 62 -92 78 0 16 149 2 167 -15z m-1846 -69 c42 -30 37 -43
-13 -35 -49 8 -63 18 -55 40 9 22 33 20 68 -5z m2419 -2 c0 -25 -24 -37 -74
-37 l-51 1 28 24 c31 27 97 35 97 12z m-3015 -17 c83 -29 117 -62 76 -75 -73
-23 -151 -29 -186 -14 -16 7 -34 13 -40 14 -5 0 -9 7 -7 14 1 7 -2 10 -7 7 -5
-4 -14 2 -20 11 -7 14 -5 23 11 41 28 29 93 30 173 2z m1281 -17 c-2 -9 -10
-17 -18 -19 -16 -2 -18 12 -5 34 11 16 26 7 23 -15z m-1564 -20 c43 -20 78
-40 78 -45 0 -11 -77 -10 -121 2 -52 15 -90 80 -46 80 6 0 46 -16 89 -37z
m2662 4 c17 -13 17 -14 -6 -29 -18 -12 -35 -14 -67 -8 -23 4 -44 10 -48 13 -6
6 23 20 62 30 34 8 41 7 59 -6z m-1060 -49 c-13 -21 -14 -40 -1 -35 7 3 11 9
10 14 -1 6 8 10 20 9 17 -1 21 4 19 19 -2 16 -1 17 7 5 6 -8 16 -15 23 -15 7
0 13 -7 13 -15 1 -8 6 -14 11 -13 6 1 11 -4 11 -12 0 -8 -3 -13 -6 -12 -3 1
-6 -1 -6 -4 0 -16 -29 -38 -39 -31 -10 7 -32 9 -38 2 -9 -8 -85 -4 -97 4 -8 6
-16 10 -18 9 -1 -2 -2 -1 0 0 1 2 -5 12 -13 22 -8 11 -10 16 -4 12 12 -7 42
20 43 38 1 13 22 14 38 3 14 -11 27 7 17 25 -5 9 -4 9 6 0 7 -7 9 -17 4 -25z
m867 13 c21 -17 22 -21 9 -36 -12 -14 -12 -19 -2 -22 22 -8 13 -33 -15 -39
-16 -3 -33 -7 -39 -9 -6 -2 -17 0 -24 5 -9 6 -5 12 15 23 l28 14 -44 7 c-61 9
-77 20 -60 40 13 16 60 33 92 35 9 1 27 -7 40 -18z m462 5 c9 -7 17 -22 17
-34 0 -20 -25 -37 -41 -26 -5 3 -9 0 -9 -5 0 -14 -55 -14 -100 0 -19 5 -46 12
-59 15 -32 7 -64 24 -57 31 3 3 29 11 58 19 71 17 168 17 191 0z m-2078 -10
c53 -22 43 -36 -26 -36 -72 0 -106 14 -88 36 15 18 70 18 114 0z m-337 -50
c15 -8 36 -23 46 -35 19 -21 19 -21 -8 -21 -48 0 -109 44 -89 64 10 9 22 7 51
-8z m315 -16 c4 0 7 -4 7 -10 0 -11 -59 -14 -84 -4 -9 3 -16 12 -16 19 0 9 11
10 43 4 23 -4 45 -8 50 -9z m1881 -6 c49 -19 -29 -71 -87 -58 -30 6 -30 7 -11
21 14 12 68 40 81 43 1 0 8 -3 17 -6z m506 -21 c0 -20 -49 -61 -77 -67 -43 -7
-44 13 -2 48 28 24 79 36 79 19z m-3008 -32 c13 -5 46 -28 73 -52 l50 -42 -69
6 c-72 7 -108 23 -126 57 -9 17 -7 22 12 30 30 12 33 12 60 1z m1384 -25 c-5
-39 -57 -58 -62 -24 -1 10 4 15 15 13 21 -3 43 14 34 28 -3 5 -1 7 5 4 5 -4 9
-13 8 -21z m109 -9 c4 5 5 3 2 -4 -4 -6 -15 -10 -25 -8 -9 1 -22 -2 -28 -6 -7
-6 -16 -4 -23 5 -9 11 -7 13 11 12 15 -1 22 4 20 14 -3 11 1 11 16 -3 10 -9
22 -14 27 -10z m-1204 -22 c18 -12 -11 -25 -53 -25 -31 0 -38 4 -38 19 0 11 6
21 13 24 13 4 58 -6 78 -18z m265 1 c25 -19 10 -35 -39 -43 -30 -4 -37 -2 -37
10 0 14 35 47 50 47 4 0 15 -6 26 -14z m2288 -2 c56 -22 -37 -88 -115 -82 -23
2 -44 8 -46 13 -3 11 111 74 134 75 6 0 18 -3 27 -6z m-564 -19 c24 -29 -11
-44 -67 -29 -13 4 -23 10 -23 14 0 9 40 28 61 29 9 1 22 -6 29 -14z m-1673
-52 c5 -14 -71 -37 -93 -29 -17 7 -8 33 14 39 29 9 75 2 79 -10z m1933 13 c0
-2 3 -11 6 -19 8 -22 -34 -28 -75 -10 -32 13 -34 16 -16 23 21 9 85 13 85 6z
m-273 -92 l28 -26 -38 6 c-42 5 -70 23 -61 37 10 17 43 9 71 -17z m-1622 -3
c6 -11 -47 -51 -68 -51 -26 0 -29 18 -7 40 21 21 64 27 75 11z m20 -86 c-30
-24 -55 -32 -55 -17 0 10 52 41 70 42 9 0 3 -10 -15 -25z m1503 -18 c12 -13
19 -27 15 -30 -7 -8 -53 31 -53 45 0 15 16 8 38 -15z m-1482 -32 c-10 -15 -26
-25 -41 -25 -38 0 -38 17 0 36 19 9 38 21 42 27 5 8 8 7 11 -1 2 -7 -3 -24
-12 -37z m1708 -45 c4 0 6 -6 3 -13 -3 -7 5 -19 16 -26 18 -11 20 -11 10 0
-25 25 -12 28 37 7 35 -14 49 -26 46 -35 -3 -8 -2 -12 2 -9 5 3 13 -8 19 -23
9 -25 8 -29 -16 -38 -46 -17 -85 2 -155 78 -36 39 -66 75 -66 80 0 4 21 2 48
-6 26 -8 51 -15 56 -15z m-2006 1 c5 -16 -135 -153 -176 -170 -26 -11 -35 -11
-48 0 -17 14 -13 61 8 86 17 20 123 81 161 92 38 11 49 9 55 -8z m116 -35
c-19 -56 -53 -83 -83 -66 -12 6 -21 15 -21 21 0 6 5 7 12 3 7 -4 8 -3 4 5 -10
16 13 43 31 37 8 -3 11 -1 8 4 -5 9 55 54 62 46 2 -1 -4 -24 -13 -50z m246
-26 c-22 -31 -45 -39 -53 -17 -7 21 15 56 42 65 35 12 39 -8 11 -48z m1315 46
c23 -17 14 -48 -12 -39 -23 8 -53 33 -53 45 0 13 44 9 65 -6z m181 -61 c13
-13 24 -31 24 -40 0 -20 -39 -19 -67 3 -21 17 -63 80 -63 95 0 12 80 -32 106
-58z m358 0 c36 -16 54 -29 50 -37 -4 -6 -3 -8 3 -5 14 9 29 -11 38 -45 7 -26
6 -27 -24 -18 -36 10 -36 10 -55 10 -14 0 -76 88 -76 108 0 16 -1 16 64 -13z
m-2464 1 c0 -15 -34 -93 -50 -117 -15 -20 -30 -29 -50 -29 -16 0 -32 -5 -35
-10 -4 -6 -11 -8 -16 -5 -19 13 -7 46 29 82 47 46 72 66 72 58 0 -4 7 1 16 9
14 15 34 22 34 12z m720 -9 c0 -8 -11 -24 -24 -36 -20 -19 -24 -20 -29 -6 -4
9 2 24 13 35 23 23 40 26 40 7z m1218 -15 c2 -7 -4 -15 -13 -18 -19 -8 -51 19
-41 35 8 12 48 -1 54 -17z m-70 -50 c2 -14 -2 -22 -12 -22 -17 0 -56 46 -56
67 0 24 64 -19 68 -45z m-1110 -10 c3 -46 -16 -64 -47 -45 -24 15 -24 36 0 67
28 36 43 29 47 -22z m108 24 c3 -13 0 -46 -8 -73 -11 -40 -18 -49 -40 -51 -31
-4 -41 17 -32 64 6 34 44 84 63 84 6 0 13 -11 17 -24z m878 -21 c6 -18 -19
-39 -39 -31 -9 3 -15 18 -15 41 0 35 0 35 24 20 13 -9 27 -22 30 -30z m-1278
18 c-3 -10 -8 -31 -12 -48 -18 -78 -72 -143 -108 -129 -36 14 -12 67 68 152
43 45 61 53 52 25z m1136 -10 c32 -29 19 -73 -22 -73 -16 0 -32 41 -26 66 7
28 22 30 48 7z m-97 -46 c16 -29 17 -39 7 -49 -22 -22 -47 4 -50 52 -4 52 14
51 43 -3z m-411 1 c3 -13 6 -40 6 -61 0 -34 -3 -38 -22 -35 -26 3 -33 31 -23
84 7 39 30 45 39 12z m99 -24 c3 -16 0 -27 -10 -31 -21 -8 -26 2 -18 36 8 36
20 33 28 -5z m142 -15 c4 -10 3 -24 0 -30 -12 -18 -45 22 -45 54 0 29 1 30 20
12 11 -10 22 -26 25 -36z m54 14 c15 -53 14 -83 -4 -90 -9 -3 -19 -3 -22 0 -7
7 -12 108 -6 120 10 17 23 5 32 -30z m-409 -3 c0 -16 -4 -30 -9 -30 -12 0 -19
21 -13 43 7 28 22 20 22 -13z m1086 -48 c26 -30 32 -72 10 -72 -21 0 -72 46
-106 95 -17 24 -30 46 -30 49 0 13 103 -47 126 -72z m510 30 c49 -36 68 -58
59 -72 -4 -6 -1 -9 7 -8 8 2 14 -9 16 -29 4 -39 1 -40 -53 -9 -27 16 -50 42
-68 74 -43 80 -30 94 39 44z m-2002 -29 c-11 -44 -49 -127 -65 -140 -13 -11
-40 -17 -66 -14 -39 3 13 106 75 149 56 39 64 40 56 5z m-680 -25 c-10 -67
-35 -110 -76 -131 -36 -18 -76 -15 -47 4 10 6 11 9 2 9 -27 0 -11 32 48 95 34
36 65 65 70 65 5 0 6 -19 3 -42z m356 6 c0 -32 -45 -107 -75 -125 -28 -17 -68
-17 -88 1 -12 11 30 57 91 100 64 44 72 47 72 24z m657 -11 c-3 -10 -8 -31
-11 -46 -4 -15 -10 -25 -15 -23 -5 3 -8 -2 -7 -12 0 -11 -7 -18 -21 -20 -37
-5 -27 44 20 96 24 26 40 29 34 5z m1362 -26 c56 -28 93 -73 71 -88 -38 -25
-112 15 -149 81 l-24 43 29 -7 c16 -4 49 -17 73 -29z m-344 -34 c37 -20 84
-63 68 -63 -4 0 -2 -5 5 -12 20 -20 15 -48 -8 -48 -51 0 -119 67 -135 133 -8
31 -4 30 70 -10z m671 -38 c56 -43 96 -115 63 -115 -5 0 -8 4 -5 9 3 4 -5 6
-19 4 -18 -4 -36 6 -75 43 -52 48 -84 96 -73 107 8 9 71 -19 109 -48z m-1596
-30 c0 -45 -12 -71 -29 -61 -14 9 -14 40 0 90 13 48 29 32 29 -29z m-273 -42
c-2 -12 -1 -24 4 -25 4 -2 -1 -21 -12 -42 -10 -22 -19 -45 -19 -52 0 -13 -46
-28 -60 -19 -20 12 -9 64 31 146 l42 84 9 -34 c5 -19 8 -45 5 -58z m847 47
c37 -41 49 -90 22 -90 -19 0 -60 54 -74 98 -16 46 6 43 52 -8z m-1634 -1 c-16
-56 -77 -128 -108 -129 -7 0 -10 -5 -6 -11 4 -7 -1 -10 -12 -7 -11 2 -21 16
-25 37 -6 28 -3 38 18 57 14 13 29 24 34 24 4 0 14 6 21 13 16 14 70 46 80 47
4 0 3 -14 -2 -31z m449 -107 c2 -86 -49 -152 -65 -86 -9 35 0 84 27 141 21 46
22 47 29 23 5 -14 8 -49 9 -78z m1439 -84 c23 -37 7 -62 -41 -66 -31 -3 -37 0
-42 20 -7 30 -10 89 -7 158 l3 55 34 -70 c20 -38 43 -82 53 -97z m692 129 c78
-28 101 -46 98 -75 -2 -21 -9 -27 -28 -28 -14 -1 -35 2 -47 7 -26 10 -113 87
-113 100 0 13 50 11 90 -4z m-401 -51 c33 -57 41 -116 17 -135 -37 -31 -80 90
-60 167 4 12 8 22 9 22 2 0 17 -24 34 -54z m-2139 -16 c-44 -64 -68 -83 -103
-78 -30 4 -33 35 -6 64 22 23 99 69 99 58 0 -3 8 0 18 5 34 20 32 10 -8 -49z
m825 -35 c4 -51 4 -98 1 -103 -3 -4 -7 -21 -10 -37 -12 -66 -75 -107 -106 -70
-18 22 -1 107 41 207 54 128 64 128 74 3z m685 9 c0 -17 -6 -24 -20 -24 -21 0
-24 20 -13 84 l5 29 14 -32 c8 -19 14 -44 14 -57z m-489 -80 c-10 -69 -38
-117 -52 -91 -10 18 7 89 33 140 26 52 33 37 19 -49z m712 -39 c77 -69 104
-114 87 -145 -8 -16 -20 -20 -46 -18 -58 4 -117 84 -142 195 -16 69 -9 67 101
-32z m-1173 -41 c0 -68 -4 -86 -21 -108 -20 -26 -22 -26 -40 -10 -28 25 -24
84 11 162 38 82 50 72 50 -44z m1960 81 c56 -29 31 -65 -44 -65 -34 0 -70 9
-106 26 l-55 26 25 13 c34 19 143 19 180 0z m-2346 -12 c20 -6 -7 -23 -111
-73 -47 -23 -83 -15 -83 18 1 58 95 84 194 55z m1862 -95 c26 -50 31 -97 14
-129 -16 -28 -38 -23 -60 14 -16 26 -20 50 -20 122 l1 90 20 -25 c12 -14 32
-46 45 -72z m-478 -7 c40 -59 54 -115 35 -134 -7 -8 -53 31 -53 44 0 5 -11 25
-25 45 -16 24 -25 51 -25 76 0 54 15 47 68 -31z m1120 23 c18 -12 21 -18 12
-29 -10 -12 -16 -12 -39 -1 -14 8 -35 24 -46 37 l-20 22 34 -7 c19 -3 46 -13
59 -22z m-334 -23 c50 -22 86 -53 86 -76 0 -46 -139 36 -140 83 0 16 0 16 54
-7z m-2394 4 c0 -10 -72 -85 -82 -85 -20 0 -2 62 22 76 25 13 60 19 60 9z
m290 0 c0 -13 -54 -82 -73 -92 -54 -30 -76 -2 -34 42 32 35 107 70 107 50z
m184 -37 c-1 -18 -4 -35 -4 -38 -1 -3 -1 -15 0 -27 2 -33 -38 -102 -66 -115
-20 -9 -30 -9 -46 1 -15 9 -18 10 -13 0 5 -8 4 -10 -3 -5 -7 4 -12 16 -12 26
0 20 125 190 140 190 4 0 6 -15 4 -32z m-160 -23 c16 -65 -22 -180 -54 -160
-25 16 10 185 38 185 6 0 13 -11 16 -25z m1925 -19 c73 -60 97 -99 83 -132
-15 -32 -53 -31 -89 2 -15 14 -21 23 -13 19 12 -5 12 -4 -1 7 -20 17 -42 57
-45 84 -1 12 -5 31 -9 43 -10 33 14 26 74 -23z m136 -19 c28 -48 34 -117 11
-117 -21 0 -34 22 -47 77 -11 46 -8 83 5 83 3 0 17 -20 31 -43z m216 22 c47
-14 92 -39 107 -57 49 -62 -57 -52 -126 12 -55 50 -48 66 19 45z m-1730 -86
c-10 -37 -43 -83 -59 -83 -4 0 -13 9 -20 20 -15 25 -6 45 47 107 34 39 36 40
39 18 2 -13 -2 -41 -7 -62z m-777 26 c-31 -57 -85 -109 -113 -109 -28 0 -47
28 -34 48 6 10 16 16 22 15 6 -2 10 3 9 10 -2 6 3 11 10 10 6 -2 11 2 10 9 -3
11 86 65 110 67 9 1 4 -16 -14 -50z m606 -21 c-25 -110 -55 -163 -85 -152 -18
7 -20 56 -4 87 21 40 70 97 84 97 9 0 11 -9 5 -32z m1122 -5 c35 -38 57 -75
68 -112 7 -26 6 -31 -8 -31 -45 0 -88 58 -97 129 -6 48 2 51 37 14z m222 -77
c19 -24 19 -27 3 -43 -15 -16 -18 -16 -35 0 -10 9 -19 23 -20 30 -1 6 -4 25
-8 42 -7 29 -7 29 17 14 13 -9 32 -28 43 -43z m491 -21 c11 -11 19 -23 18 -27
-2 -5 2 -8 7 -8 6 0 10 -6 10 -14 0 -8 -10 -13 -27 -12 -29 1 -56 36 -69 91
l-7 30 24 -20 c13 -11 33 -29 44 -40z m-2338 -40 c-10 -29 -21 -41 -42 -47
-16 -4 -30 -6 -32 -4 -7 6 23 64 52 100 28 36 30 37 33 15 1 -13 -3 -42 -11
-64z m2486 63 c42 -24 57 -41 57 -65 0 -21 -4 -23 -22 -18 -28 8 -68 54 -68
78 0 20 3 21 33 5z m-2292 -113 c-11 -25 -27 -45 -35 -45 -25 0 -19 29 17 88
29 49 32 51 35 28 2 -14 -6 -46 -17 -71z m-331 80 c0 -28 -54 -92 -97 -114
-21 -11 -23 -9 -23 12 0 28 75 107 102 107 10 0 18 -2 18 -5z m2279 -41 c29
-37 28 -68 -1 -58 -30 9 -29 7 -35 48 -6 43 8 46 36 10z m271 -131 c0 -13 -6
-23 -13 -23 -24 0 -49 37 -53 82 l-5 43 35 -39 c20 -22 36 -50 36 -63z m-2446
-15 c-8 -53 -12 -63 -30 -66 -35 -5 -47 20 -30 62 8 20 20 36 25 36 6 0 10 3
9 8 0 4 2 15 7 25 5 12 11 15 18 8 6 -6 7 -32 1 -73z"/>
<path d="M1196 3321 c-3 -5 2 -15 12 -22 15 -12 16 -12 5 2 -7 9 -10 19 -6 22
3 4 4 7 0 7 -3 0 -8 -4 -11 -9z"/>
<path d="M2915 3141 c-3 -5 -2 -12 3 -15 5 -3 9 1 9 9 0 17 -3 19 -12 6z"/>
<path d="M2914 3063 c3 -4 -2 -15 -11 -25 -18 -20 -27 -52 -13 -43 5 3 11 1
14 -3 6 -11 46 -10 64 2 11 6 10 12 -4 27 -9 10 -13 19 -9 19 15 0 -14 24 -31
26 -9 1 -13 0 -10 -3z m28 -20 c-1 -4 7 -16 15 -25 17 -19 16 -19 -19 -22 -40
-4 -52 14 -27 40 22 23 31 25 31 7z"/>
<path d="M2915 3030 c-10 -11 -16 -20 -14 -21 2 -1 16 -2 32 -3 25 -3 26 -1
12 14 -8 9 -12 20 -8 23 3 4 4 7 1 7 -3 0 -13 -9 -23 -20z m19 -8 c3 -5 -1 -9
-9 -9 -8 0 -12 4 -9 9 3 4 7 8 9 8 2 0 6 -4 9 -8z"/>
<path d="M3024 3048 c-3 -5 -9 -6 -14 -3 -4 3 -13 -2 -19 -9 -9 -10 -9 -16 -1
-21 8 -5 7 -12 -2 -23 -11 -15 -11 -15 2 -5 24 18 26 19 43 4 10 -7 18 -11 18
-7 1 3 2 9 3 14 1 4 5 12 9 19 4 6 3 14 -3 18 -6 4 -8 10 -6 14 3 4 -2 8 -10
8 -8 0 -17 -4 -20 -9z m26 -33 c-5 -6 -6 -16 -2 -21 4 -4 -1 -2 -10 5 -10 7
-18 10 -18 6 0 -4 -7 -2 -15 5 -15 12 -11 35 5 25 5 -3 12 -1 15 5 5 8 11 7
21 -1 10 -8 11 -15 4 -24z"/>
<path d="M3025 3030 c-4 -6 -11 -7 -17 -4 -6 4 -8 2 -5 -4 7 -10 32 -11 42 0
4 3 2 9 -4 12 -5 4 -12 2 -16 -4z"/>
<path d="M2945 2910 c-4 -6 -10 -8 -15 -5 -5 3 -11 1 -14 -4 -8 -13 22 -7 36
7 7 7 9 12 6 12 -4 0 -10 -5 -13 -10z"/>
<path d="M1505 2190 c-3 -5 -2 -18 4 -27 7 -14 9 -12 8 10 -2 30 -3 31 -12 17z"/>
<path d="M1854 2204 c-18 -14 -18 -15 4 -4 12 6 22 13 22 15 0 8 -5 6 -26 -11z"/>
</g>
</svg>
